# xmcd
# 
# Track frame offsets:
#     150
#     28603
#     61022
#     86058
#     124425
#     154462
# 
# Disc length: 2346
# 
# Revision: 0
# Processed by: cddbd v1.5.2PL0 Copyright (c) Steve Scherf et al.
# Submitted via: BonkEnc v1.0.6
# 
DISCID=4c092806
DTITLE=Gato Barbieri - Gato
DYEAR=1982
DGENRE=Fusion
TTITLE0=Bahia/Sweet Emiliano
TTITLE1=Retorno
TTITLE2=Alma
TTITLE3=Mowgli
TTITLE4=Memories
TTITLE5=Playtime
EXTD=YEAR: 1991
EXTT0=
EXTT1=
EXTT2=
EXTT3=
EXTT4=
EXTT5=
PLAYORDER=
